PathFileType	3	(X/Y/Z)	RCH0000002 BBF 11.c3d
DataRate	CameraRate	NumFrames	NumMarkers	Units	OrigDataRate	OrigDataStartFrame	OrigNumFrames
100.0	100.0	12	23	mm	100.0	170	502
Frame#	Time	T2			T10			MAN			LASI			RASI			LPSI			RPSI			LPAT			LKNE			LANK			LMED			LTOE			RPAT			RKNE			RANK			RMED			RHEE			RTOE			LHEE			RTHI			LTHI			RTIB			LTIB			
		X1	Y1	Z1	X2	Y2	Z2	X3	Y3	Z3	X4	Y4	Z4	X5	Y5	Z5	X6	Y6	Z6	X7	Y7	Z7	X8	Y8	Z8	X9	Y9	Z9	X10	Y10	Z10	X11	Y11	Z11	X12	Y12	Z12	X13	Y13	Z13	X14	Y14	Z14	X15	Y15	Z15	X16	Y16	Z16	X17	Y17	Z17	X18	Y18	Z18	X19	Y19	Z19	X20	Y20	Z20	X21	Y21	Z21	X22	Y22	Z22	X23	Y23	Z23	

170	1.690	-1089.31514	-27.87236	992.15978	-1087.48951	-42.23694	804.84687	-962.66660	-8.99723	957.54480	-1011.49597	42.03321	647.75826	-982.03480	-131.27954	666.85670	-1109.97546	-22.91919	708.49045	-1098.85549	-92.52697	716.47855	-1005.41670	2.24091	368.41051	-1061.96938	58.03270	340.83523	-1236.15865	76.82230	135.02332	-1226.18723	6.84639	140.96258	-1199.44343	41.84709	100.38392	-964.25834	-65.10853	390.15552	-999.77647	-123.65414	351.58369	-1061.57647	-130.73831	85.14206	-1089.38098	-68.45237	100.89910	-1111.66001	-116.27884	121.40130	-1030.61797	-81.86217	74.42481	-1252.41012	34.55744	177.76865	-980.32681	-198.21074	458.02354	-1060.96776	124.01624	467.80507	-1011.24551	-190.89617	236.29056	-1132.48639	128.19138	258.64632	
171	1.700	-1078.82735	-26.23693	995.35117	-1076.99934	-42.07922	808.17085	-952.14405	-7.84071	961.03375	-999.10331	39.79774	650.59961	-972.83296	-134.04908	670.35010	-1098.63522	-23.04445	711.86404	-1088.61656	-92.80700	720.20469	-985.83429	0.83421	373.60334	-1041.99198	56.56225	344.71996	-1213.49106	75.49431	136.71190	-1202.27029	5.38493	141.71458	-1175.07923	41.71829	102.75256	-963.34401	-68.52197	391.14091	-999.79584	-127.06267	353.43246	-1060.87913	-130.74385	86.18841	-1087.89122	-68.36273	102.36511	-1110.91753	-116.11191	122.61144	-1029.60195	-82.01345	74.98869	-1229.97704	32.02602	178.21490	-977.12838	-201.37844	459.41458	-1044.16136	122.59723	471.55886	-1012.53892	-193.31420	237.10366	-1112.49202	126.67365	262.59077	
172	1.710	-1068.39896	-24.87048	998.32345	-1066.67354	-42.04383	811.17896	-941.72584	-6.81244	964.16974	-986.81558	37.68248	653.29145	-963.73930	-136.65146	673.49920	-1087.41275	-23.10719	714.82138	-1078.49155	-93.00293	723.45521	-965.90735	-0.41138	378.88080	-1021.51134	55.21808	348.58744	-1189.72716	74.27369	137.94781	-1177.50574	4.04084	142.25381	-1149.70990	41.49110	104.86419	-962.32203	-71.51194	392.00972	-999.63897	-130.03056	355.16307	-1060.11751	-130.65825	87.24246	-1086.31775	-68.17242	103.79720	-1110.06857	-115.80503	123.84641	-1028.51073	-82.10148	75.52292	-1206.66779	29.80111	178.31047	-973.86055	-204.12194	460.63108	-1027.18168	121.32617	475.19595	-1013.67788	-195.39435	237.95170	-1091.58260	125.28988	266.17341	
173	1.720	-1058.02217	-23.79619	1000.98966	-1056.50573	-42.08685	813.77745	-931.39634	-5.93146	966.85813	-974.60945	35.69092	655.71304	-954.74904	-139.08108	676.25721	-1076.30649	-23.06563	717.25599	-1068.48420	-93.07498	726.15785	-945.71352	-1.58389	384.12652	-1000.53588	53.97017	352.33697	-1164.86293	73.27245	138.71260	-1151.98890	2.92199	142.57074	-1123.41168	41.21103	106.67903	-961.01624	-74.18694	392.72041	-999.19012	-132.62354	356.73756	-1059.28294	-130.54418	88.27112	-1084.66519	-67.94783	105.19391	-1109.08605	-115.43390	125.10012	-1027.34488	-82.17871	76.01192	-1182.51326	28.04803	178.05569	-970.49449	-206.50870	461.65909	-1009.96355	120.17709	478.60155	-1014.55248	-197.19848	238.78611	-1069.66734	124.07174	269.30765	
174	1.730	-1047.68722	-23.01345	1003.27706	-1046.48718	-42.16396	815.89306	-921.13732	-5.20265	969.02167	-962.45887	33.81469	657.76341	-945.85494	-141.34394	678.59418	-1065.30989	-22.89026	719.08687	-1058.59366	-92.99524	728.26174	-925.35561	-2.77870	389.23986	-979.11406	52.77324	355.89062	-1138.91414	72.57105	139.00213	-1125.79374	2.10529	142.64134	-1096.24788	40.92338	108.16815	-959.28546	-76.64290	393.23742	-998.35707	-134.90670	358.12623	-1058.37408	-130.44881	89.24580	-1082.94128	-67.73990	106.55035	-1107.95502	-115.05744	126.36375	-1026.10907	-82.28377	76.44206	-1157.54886	26.87070	177.43830	-967.00862	-208.60918	462.49151	-992.46711	119.10779	481.69044	-1015.07969	-198.78342	239.56416	-1046.72315	123.02682	271.95346	
175	1.740	-1037.38239	-22.49999	1005.12840	-1036.60513	-42.23415	817.47424	-910.92810	-4.61754	970.60313	-950.33621	32.03662	659.36537	-937.04387	-143.45432	680.49516	-1054.40984	-22.56587	720.26084	-1048.81129	-92.74963	729.73762	-904.95800	-4.09055	394.13505	-957.33646	51.56926	359.19110	-1111.91831	72.20703	138.82189	-1098.97440	1.62601	142.42651	-1068.27274	40.66123	109.31088	-957.02921	-78.94978	393.53180	-997.07144	-136.93470	359.30635	-1057.40148	-130.39801	90.14526	-1081.15959	-67.57753	107.85903	-1106.67717	-114.70978	127.62814	-1024.81612	-82.43719	76.80271	-1131.81463	26.30215	176.43100	-963.38212	-210.48663	463.12341	-974.68561	118.06312	484.40572	-1015.20798	-200.19233	240.25071	-1022.79892	122.13383	274.10970	
176	1.750	-1027.09403	-22.21565	1006.50229	-1026.84109	-42.26275	818.49088	-900.74586	-4.15620	971.56679	-938.21337	30.33473	660.46715	-928.29389	-145.43105	681.95753	-1043.58562	-22.09196	720.75293	-1039.11818	-92.33836	730.57695	-884.66137	-5.60815	398.73827	-935.33271	50.29040	362.19644	-1083.93602	72.16788	138.18173	-1071.57264	1.47082	141.87509	-1039.53956	40.43301	110.09195	-954.18752	-81.14535	393.58162	-995.28610	-138.74653	360.26092	-1056.38803	-130.39528	90.95726	-1079.33993	-67.46627	109.11167	-1105.27084	-114.39838	128.88622	-1023.48804	-82.64073	77.08711	-1105.35763	26.30387	174.99271	-959.58823	-212.19021	463.54884	-956.64818	116.97914	486.71353	-1014.91632	-201.45083	240.81923	-998.01042	121.34119	275.80074	
177	1.760	-1016.80672	-22.10738	1007.37265	-1017.16946	-42.22363	818.93278	-890.56605	-3.78982	971.89861	-926.06296	28.68637	661.04186	-919.57215	-147.29394	682.98795	-1032.80852	-21.48175	720.56479	-1029.48377	-91.77507	730.79000	-864.61597	-7.41117	402.98357	-913.26350	48.86252	364.87295	-1055.05314	72.38885	137.09130	-1043.63082	1.57548	140.93013	-1010.11257	40.21203	110.49857	-950.73526	-83.23632	393.37182	-992.97004	-140.36498	360.97761	-1055.36486	-130.42540	91.67905	-1077.50585	-67.39221	110.30133	-1103.76628	-114.10851	130.13494	-1022.15378	-82.88037	77.29258	-1078.23748	26.77287	173.07377	-955.58860	-213.75220	463.75904	-938.41713	115.78776	488.59494	-1014.20787	-202.56801	241.25182	-972.52791	120.56903	277.06025	
178	1.770	-1006.50352	-22.11491	1007.72753	-1007.55670	-42.10043	818.80716	-880.36282	-3.48385	971.60547	-913.85925	27.07195	661.08522	-910.83433	-149.06070	683.59927	-1022.04240	-20.75997	719.72164	-1019.86589	-91.08487	730.40311	-844.97352	-9.56899	406.80890	-891.30890	47.20918	367.18817	-1025.38541	72.75579	135.55700	-1015.20879	1.82723	139.53722	-980.08162	39.93022	110.51852	-946.67197	-85.20547	392.89316	-990.10182	-141.79984	361.44756	-1054.36381	-130.46187	92.31635	-1075.67970	-67.32992	111.42440	-1102.19695	-113.81252	131.37632	-1020.84408	-83.13203	77.42008	-1050.53516	27.55430	170.62402	-951.33014	-215.18907	463.74213	-920.08055	114.42180	490.03728	-1013.09967	-203.54135	241.53850	-946.55987	119.71456	277.91570	
179	1.780	-996.16636	-22.17642	1007.56763	-997.96112	-41.88711	818.13565	-870.10968	-3.20130	970.71336	-901.57901	25.47775	660.61223	-902.02563	-150.74497	683.80743	-1011.24504	-19.95982	718.26814	-1010.21240	-90.30155	729.45536	-825.87839	-12.13958	410.15305	-869.65465	45.25656	369.10528	-995.08632	73.11277	133.58115	-986.40227	2.07213	137.65342	-949.57775	39.47820	110.13915	-942.00943	-87.02273	392.14037	-986.66231	-143.05353	361.66381	-1053.40782	-130.47623	92.88120	-1073.87602	-67.25236	112.48182	-1100.58850	-113.48179	132.61749	-1019.58474	-83.36888	77.47284	-1022.36458	28.45686	167.60272	-946.74491	-216.50552	463.48396	-901.74185	112.82024	491.02650	-1011.61008	-204.36417	241.67559	-920.33674	118.66014	278.37637	
180	1.790	-985.77651	-22.23382	1006.90469	-988.33369	-41.58766	816.95115	-859.78021	-2.90597	969.26501	-889.20226	23.89747	659.65330	-893.08333	-152.35542	683.62904	-1000.37042	-19.11962	716.26380	-1000.46412	-89.46449	727.99507	-807.45866	-15.16744	412.95440	-848.47856	42.93930	370.58026	-964.35767	73.27415	131.16328	-957.35994	2.12709	135.25513	-918.78748	38.71296	109.34797	-936.75862	-88.65741	391.10973	-982.62812	-144.12745	361.61967	-1052.50134	-130.44746	93.38896	-1072.09422	-67.14070	113.47934	-1098.94747	-113.09828	133.86964	-1018.38957	-83.56877	77.45440	-993.88514	29.26896	163.98817	-941.75334	-217.70019	462.96962	-883.50820	110.93356	491.54243	-1009.74628	-205.03334	241.66342	-894.09862	117.28341	278.42752	
181	1.800	-975.31525	-22.23715	1005.76008	-978.61962	-41.21533	815.29499	-849.34883	-2.56537	967.31709	-876.71288	22.33255	658.25067	-883.94077	-153.89592	683.07958	-989.37164	-18.27940	713.77864	-990.55891	-88.61544	726.07653	-789.81784	-18.67946	415.15199	-827.93914	40.20732	371.56238	-933.46090	73.04073	128.30333	-928.29593	1.79630	132.34357	-887.96325	37.47311	108.13453	-930.91871	-90.08941	389.79641	-977.96663	-145.02768	361.30682	-1051.62258	-130.36924	93.85507	-1070.31190	-66.99170	114.42666	-1097.25152	-112.66338	135.14632	-1017.25460	-83.72019	77.36630	-965.31311	29.77451	159.78562	-936.27002	-218.77163	462.18534	-865.48044	108.72893	491.55778	-1007.49391	-205.55576	241.50365	-868.08871	115.46913	278.03143	
